<?xml version="1.0" encoding="UTF-8" standalone="no"?><!DOCTYPE svg PUBLIC "-//W3C//DTD SVG 1.1//EN" "http://www.w3.org/Graphics/SVG/1.1/DTD/svg11.dtd"><svg width="100%" height="100%" viewBox="0 0 1206 1206" version="1.1" xmlns="http://www.w3.org/2000/svg" xmlns:xlink="http://www.w3.org/1999/xlink" xml:space="preserve" xmlns:serif="http://www.serif.com/" style="fill-rule:evenodd;clip-rule:evenodd;stroke-linejoin:round;stroke-miterlimit:2;"><rect id="Artboard10" x="0" y="0" width="1205.642" height="1205.642" style="fill:none;"/><g><path d="M1170.7,318.881l0,567.879c0,156.71 -127.229,283.94 -283.94,283.94l-567.879,0c-156.71,0 -283.94,-127.229 -283.94,-283.94l0,-567.879c0,-156.71 127.229,-283.94 283.94,-283.94l567.879,0c156.71,0 283.94,127.229 283.94,283.94Z"/><path d="M936.456,658.181l84.204,46.688c12.08,7.569 20.967,17.831 20.967,28.807c0,11.043 -8.996,21.363 -21.187,28.945l-370.867,205.632c-7.549,3.224 -16.268,5.432 -25.338,5.432c-9.846,0 -19.279,-2.603 -27.25,-6.282l-373.314,-206.989c-10.457,-7.32 -17.842,-16.732 -17.842,-26.738c0,-9.973 7.336,-19.355 17.738,-26.665l85.325,-47.31c0.998,0.822 2.049,1.617 3.142,2.382l289.057,160.271c6.172,2.849 13.476,4.864 21.1,4.864c7.023,0 13.774,-1.71 19.619,-4.206l287.162,-159.22c2.741,-1.704 5.273,-3.588 7.486,-5.611Zm-39.256,-168.235l80.354,44.553c10.882,6.819 18.888,16.063 18.888,25.951c0,9.948 -8.104,19.245 -19.087,26.075l-334.096,185.244c-6.801,2.904 -14.655,4.894 -22.825,4.894c-8.87,0 -17.367,-2.345 -24.548,-5.659l-336.301,-186.466c-9.42,-6.594 -16.073,-15.073 -16.073,-24.087c0,-8.984 6.609,-17.436 15.979,-24.021l87.319,-48.415l256.992,142.492c5.875,2.712 12.828,4.63 20.085,4.63c6.685,0 13.111,-1.628 18.676,-4.004l254.638,-141.187Zm-293.398,91.421l-275.16,-152.565c-7.707,-5.395 -13.151,-12.333 -13.151,-19.708c0,-7.351 5.408,-14.266 13.074,-19.654l277.302,-153.753c5.411,-2.226 11.596,-3.729 18.02,-3.729c6.031,0 11.85,1.325 17.017,3.328l275.177,152.575c8.903,5.579 15.454,13.143 15.454,21.233c0,8.14 -6.63,15.746 -15.617,21.335l-273.356,151.565c-5.564,2.376 -11.99,4.004 -18.676,4.004c-7.257,0 -14.21,-1.918 -20.085,-4.63Z" style="fill:url(#_Linear1);"/></g><defs><linearGradient id="_Linear1" x1="0" y1="0" x2="1" y2="0" gradientUnits="userSpaceOnUse" gradientTransform="matrix(835.798791,0,0,741.727729,205.827558,602.820823)"><stop offset="0" style="stop-color:#05b1e7;stop-opacity:1"/><stop offset="1" style="stop-color:#02ebb9;stop-opacity:1"/></linearGradient></defs></svg>