<?xml version="1.0" encoding="UTF-8" standalone="no"?><!DOCTYPE svg PUBLIC "-//W3C//DTD SVG 1.1//EN" "http://www.w3.org/Graphics/SVG/1.1/DTD/svg11.dtd"><svg width="100%" height="100%" viewBox="0 0 6400 4267" version="1.1" xmlns="http://www.w3.org/2000/svg" xmlns:xlink="http://www.w3.org/1999/xlink" xml:space="preserve" xmlns:serif="http://www.serif.com/" style="fill-rule:evenodd;clip-rule:evenodd;stroke-linejoin:round;stroke-miterlimit:2;"><rect id="Artboard8" x="0" y="0" width="6400" height="4266.667" style="fill:none;"/><g><path d="M463.366,3323.978c66.399,-10.348 92.268,-10.348 150.906,0c96.58,17.246 172.464,71.572 213.855,151.768c22.42,43.978 18.109,49.152 -41.391,65.536c-31.043,7.761 -62.087,17.246 -68.985,19.833c-8.623,3.449 -13.797,0.862 -13.797,-6.899c0,-22.42 -43.978,-75.884 -77.609,-93.13c-45.703,-23.283 -126.761,-23.283 -171.601,0c-56.051,28.457 -93.13,79.333 -108.652,150.043c-12.935,56.051 -12.935,68.123 -0.862,125.899c25.007,118.138 88.819,175.913 194.022,175.913c36.217,0 67.261,-5.174 83.645,-14.659c31.043,-15.522 70.71,-59.5 81.92,-90.543c5.174,-13.797 12.935,-18.971 23.283,-15.522c7.761,2.587 37.942,8.623 65.536,12.935c28.457,5.174 52.601,11.21 55.188,13.797c11.21,11.21 -31.043,87.957 -70.71,128.485c-125.899,129.348 -390.63,119 -507.906,-20.696c-81.058,-96.58 -106.928,-270.768 -57.775,-398.391c36.217,-97.442 146.594,-187.123 250.935,-204.37Zm1959.188,83.645c83.645,-25.007 82.783,-25.87 85.37,55.188l2.587,71.572l53.464,2.587c52.601,2.587 53.464,2.587 58.638,30.181c2.587,15.522 3.449,37.08 1.725,49.152c-3.449,19.833 -6.899,21.558 -62.087,24.145l-57.775,2.587l3.449,129.348c3.449,150.043 6.899,156.942 75.884,152.63l38.804,-1.725l5.174,96.58l-43.116,10.348c-52.601,12.072 -117.275,5.174 -155.217,-18.109c-45.703,-27.594 -52.601,-57.775 -52.601,-223.341l0,-146.594l-86.232,0l0,-103.478l86.232,0l0,-118.138l45.703,-12.935Zm-983.043,122.449c84.507,-17.246 178.5,8.623 231.964,63.812c43.978,45.703 61.225,86.232 65.536,157.804l4.312,62.949l-177.638,0c-97.442,0 -179.362,2.587 -181.087,6.036c-7.761,15.522 12.935,62.949 37.08,83.645c50.877,42.254 144.007,35.355 175.913,-14.659c13.797,-19.833 14.659,-20.696 70.71,-10.348c31.043,6.036 58.638,12.935 60.362,15.522c10.348,9.486 -6.899,40.529 -40.529,73.297c-63.812,64.674 -194.022,88.819 -287.152,53.464c-101.754,-38.804 -155.217,-123.312 -155.217,-245.761c0.862,-125.899 76.746,-220.754 195.746,-245.761Zm105.203,106.928c-56.913,-23.283 -123.312,-5.174 -147.456,40.529c-25.007,49.152 -22.42,50.877 95.717,50.877c91.406,0 107.79,-1.725 107.79,-12.935c0,-27.594 -27.594,-66.399 -56.051,-78.471Zm413.913,-107.79c62.949,-11.21 150.906,-0.862 201.783,25.007c75.884,37.942 81.92,53.464 88.819,243.174c3.449,87.957 8.623,174.188 12.072,191.435l5.174,32.768l-65.536,0c-63.812,0 -66.399,-0.862 -75.884,-24.145c-6.036,-12.935 -11.21,-25.007 -12.935,-26.732c-0.862,-1.725 -15.522,8.623 -31.906,23.283c-19.833,17.246 -46.565,29.319 -79.333,36.217c-146.594,31.043 -250.935,-57.775 -213.855,-181.949c25.007,-83.645 111.239,-119 316.471,-128.485c15.522,0 5.174,-53.464 -15.522,-73.297c-39.667,-40.529 -135.384,-23.283 -158.667,28.457c-6.899,13.797 -14.659,18.971 -23.283,15.522c-7.761,-2.587 -35.355,-5.174 -61.225,-5.174l-47.428,0l5.174,-27.594c12.072,-59.5 80.196,-115.551 156.08,-128.485Zm150.906,306.123c0,-32.768 -4.312,-33.63 -90.543,-20.696c-59.5,8.623 -87.957,24.145 -99.167,51.739c-12.935,31.906 2.587,57.775 43.978,70.71c68.985,20.696 145.732,-33.63 145.732,-101.754Zm742.456,-305.261c47.428,-9.486 131.072,-2.587 170.739,13.797c199.196,82.783 202.645,384.594 6.036,469.964c-24.145,10.348 -69.848,20.696 -100.891,23.283c-109.514,7.761 -199.196,-40.529 -244.898,-132.797c-46.565,-94.855 -29.319,-229.377 37.08,-299.225c31.906,-34.493 87.957,-65.536 131.935,-75.022Zm134.522,130.21c-31.043,-28.457 -95.717,-33.63 -131.935,-11.21c-37.942,24.145 -58.638,73.297 -58.638,136.246c0.862,88.819 47.428,144.87 119.862,143.145c50.014,0 79.333,-18.971 100.029,-64.674c31.043,-68.985 18.109,-159.529 -29.319,-203.507Zm-1860.021,-116.413c16.384,-6.899 44.841,-12.935 62.949,-13.797l31.906,0l0,125.036l-46.565,0.862c-37.08,0 -52.601,5.174 -77.609,23.283c-17.246,13.797 -33.63,34.493 -37.08,47.428c-4.312,12.935 -6.899,84.507 -6.899,158.667l0,136.246l-133.659,0l0,-482.898l129.348,0l0,63.812l24.145,-23.283c12.935,-12.072 37.08,-28.457 53.464,-35.355Zm2323.086,2.587c19.833,-9.486 48.29,-15.522 64.674,-14.659l28.457,2.587l0,120.725l-53.464,5.174c-44.841,4.312 -57.775,9.486 -80.196,32.768l-27.594,26.732l-5.174,301.812l-137.109,0l0,-482.898l137.971,0l0,71.572l18.971,-24.145c10.348,-12.935 34.493,-31.043 53.464,-39.667Zm447.782,-220.754c91.406,-20.696 215.58,0.862 281.978,49.152c38.804,28.457 88.819,115.551 75.022,129.348c-4.312,3.449 -37.08,9.486 -72.435,12.072l-64.674,6.036l-17.246,-28.457c-22.42,-37.08 -67.261,-58.638 -119,-58.638c-108.652,0 -166.427,82.783 -89.681,129.348c14.659,9.486 56.913,23.283 92.268,30.181c170.739,36.217 238.862,71.572 269.906,140.558c37.942,85.37 9.486,199.196 -62.949,248.348c-100.891,69.848 -291.464,72.435 -403.565,6.899c-56.913,-33.63 -116.413,-140.558 -88.819,-158.667c11.21,-6.036 123.312,-28.457 125.036,-24.145c0,1.725 8.623,18.109 18.109,37.08c52.601,106.065 282.841,94.855 282.841,-13.797c0,-45.703 -29.319,-63.812 -156.942,-98.304c-169.877,-44.841 -227.652,-81.92 -249.21,-160.391c-31.043,-115.551 40.529,-213.855 179.362,-246.623Zm1828.116,695.891l0,-681.232l137.971,0l0,392.355l45.703,-47.428c25.007,-25.87 65.536,-69.848 89.681,-97.442l44.841,-50.014l81.92,2.587l81.058,2.587l-93.993,99.167c-51.739,54.326 -92.268,103.478 -90.543,108.652c1.725,5.174 43.978,62.949 93.13,129.348c49.152,65.536 92.268,125.036 96.58,130.21c4.312,8.623 -12.072,11.21 -75.022,11.21l-80.196,0l-62.087,-90.543c-34.493,-49.152 -65.536,-91.406 -69.848,-93.993c-3.449,-2.587 -19.833,8.623 -35.355,25.007c-27.594,28.457 -28.457,31.043 -26.732,94.855l1.725,64.674l-138.833,0Zm-1297.79,-613.109c85.37,-25.007 81.92,-26.732 81.92,56.913l0,73.297l112.964,0l-2.587,49.152l-2.587,50.014l-53.464,2.587l-54.326,2.587l0,128.485c0,150.043 2.587,155.217 69.848,155.217l42.254,0l0,46.565c0,55.188 -2.587,56.913 -92.268,56.913c-75.884,0 -112.964,-14.659 -136.246,-54.326c-15.522,-24.145 -17.246,-47.428 -19.833,-181.087l-3.449,-152.63l-84.507,0l0,-103.478l85.37,0l2.587,-57.775l2.587,-56.913l51.739,-15.522Zm398.391,121.587c88.819,-15.522 201.783,6.899 245.761,49.152c35.355,34.493 43.116,68.985 44.841,216.442c1.725,74.159 5.174,156.08 9.486,180.225l6.899,45.703l-62.087,0c-59.5,0 -62.087,-0.862 -77.609,-25.87c-13.797,-23.283 -17.246,-25.007 -26.732,-12.935c-42.254,50.877 -168.152,68.985 -237.138,34.493c-62.087,-31.043 -92.268,-99.167 -73.297,-168.152c17.246,-64.674 83.645,-106.928 183.674,-117.275c29.319,-2.587 65.536,-6.036 79.333,-7.761c14.659,-0.862 34.493,-2.587 45.703,-3.449c28.457,-1.725 25.007,-38.804 -6.899,-71.572c-25.007,-24.145 -30.181,-25.87 -75.022,-22.42c-41.391,3.449 -52.601,8.623 -73.297,31.906c-23.283,26.732 -26.732,27.594 -82.783,25.007c-56.051,-2.587 -57.775,-3.449 -55.188,-24.145c8.623,-59.5 75.884,-115.551 154.355,-129.348Zm155.217,309.572l5.174,-33.63l-33.63,0.862c-95.717,3.449 -154.355,25.87 -163.841,62.949c-12.935,53.464 53.464,87.957 120.725,62.087c43.978,-16.384 65.536,-44.841 71.572,-92.268Zm386.319,-306.123c75.022,-18.971 173.326,-0.862 231.101,43.116c31.906,25.007 74.159,104.341 61.225,116.413c-4.312,4.312 -33.63,9.486 -65.536,12.935c-50.877,5.174 -57.775,3.449 -62.087,-10.348c-9.486,-30.181 -45.703,-55.188 -84.507,-59.5c-75.022,-7.761 -121.587,50.014 -121.587,149.181c0,38.804 6.036,62.949 19.833,87.957c41.391,74.159 138.833,74.159 179.362,0.862c14.659,-25.87 14.659,-25.87 75.022,-19.833c33.63,2.587 62.087,6.899 63.812,8.623c6.899,6.036 -7.761,43.978 -31.906,81.058c-68.985,109.514 -261.283,126.761 -367.348,33.63c-48.29,-43.116 -75.022,-103.478 -78.471,-183.674c-6.899,-131.072 62.949,-231.101 181.087,-260.42Z" style="fill:#fff;"/><path d="M4467.853,1944.555l309.959,171.86c44.466,27.864 77.181,65.637 77.181,106.042c0,40.65 -33.114,78.637 -77.992,106.548l-1365.186,756.943c-27.788,11.867 -59.882,19.996 -93.269,19.996c-36.245,0 -70.966,-9.58 -100.309,-23.123l-1374.195,-761.939c-38.492,-26.946 -65.679,-61.592 -65.679,-98.426c0,-36.711 27.006,-71.249 65.294,-98.156l314.088,-174.15c3.675,3.025 7.541,5.951 11.566,8.769l1064.037,589.968c22.72,10.486 49.605,17.904 77.669,17.904c25.851,0 50.702,-6.294 72.218,-15.483l1057.061,-586.1c10.088,-6.274 19.409,-13.206 27.557,-20.655Zm-144.503,-692.907l295.79,164.004c40.057,25.101 69.529,59.129 69.529,95.528c0,36.62 -29.831,70.84 -70.259,95.984l-1229.831,681.894c-25.033,10.691 -53.945,18.014 -84.022,18.014c-32.651,0 -63.93,-8.63 -90.364,-20.831l-1237.947,-686.394c-34.676,-24.274 -59.167,-55.486 -59.167,-88.667c0,-33.071 24.328,-64.184 58.82,-88.424l321.427,-178.219l946.004,524.523c21.628,9.982 47.22,17.044 73.935,17.044c24.608,0 48.264,-5.992 68.746,-14.739l937.338,-519.718Zm-1080.019,262.907l-1012.881,-561.604c-28.371,-19.861 -48.41,-45.398 -48.41,-72.547c0,-27.058 19.905,-52.515 48.126,-72.348l1020.765,-565.975c19.918,-8.194 42.686,-13.728 66.334,-13.728c22.199,0 43.622,4.876 62.64,12.251l1012.944,561.639c32.774,20.537 56.888,48.379 56.888,78.161c0,29.962 -24.407,57.961 -57.486,78.534l-1006.24,557.922c-20.482,8.747 -44.138,14.739 -68.746,14.739c-26.715,0 -52.307,-7.061 -73.935,-17.044Z" style="fill:url(#_Linear1);"/></g><defs><linearGradient id="_Linear1" x1="0" y1="0" x2="1" y2="0" gradientUnits="userSpaceOnUse" gradientTransform="matrix(3076.630776,0,0,2730.34896,1778.36238,1740.770595)"><stop offset="0" style="stop-color:#05b1e7;stop-opacity:1"/><stop offset="1" style="stop-color:#02ebb9;stop-opacity:1"/></linearGradient></defs></svg>