<?xml version="1.0" encoding="UTF-8" standalone="no"?><!DOCTYPE svg PUBLIC "-//W3C//DTD SVG 1.1//EN" "http://www.w3.org/Graphics/SVG/1.1/DTD/svg11.dtd"><svg width="100%" height="100%" viewBox="0 0 5939 1301" version="1.1" xmlns="http://www.w3.org/2000/svg" xmlns:xlink="http://www.w3.org/1999/xlink" xml:space="preserve" xmlns:serif="http://www.serif.com/" style="fill-rule:evenodd;clip-rule:evenodd;stroke-linejoin:round;stroke-miterlimit:2;"><rect id="Artboard2" x="0" y="0" width="5938.424" height="1300.66" style="fill:none;"/><g><path d="M1750.103,397.24c47.567,-7.413 66.1,-7.413 108.107,0c69.188,12.355 123.551,51.274 153.203,108.725c16.062,31.505 12.973,35.212 -29.652,46.949c-22.239,5.56 -44.478,12.355 -49.42,14.208c-6.178,2.471 -9.884,0.618 -9.884,-4.942c0,-16.062 -31.505,-54.362 -55.598,-66.717c-32.741,-16.679 -90.81,-16.679 -122.933,0c-40.154,20.386 -66.717,56.833 -77.837,107.489c-9.266,40.154 -9.266,48.803 -0.618,90.192c17.915,84.632 63.629,126.022 138.995,126.022c25.946,0 48.185,-3.707 59.922,-10.502c22.239,-11.12 50.656,-42.625 58.687,-64.864c3.707,-9.884 9.266,-13.591 16.679,-11.12c5.56,1.853 27.181,6.178 46.949,9.266c20.386,3.707 37.683,8.031 39.536,9.884c8.031,8.031 -22.239,63.011 -50.656,92.045c-90.192,92.663 -279.842,85.25 -363.857,-14.826c-58.069,-69.188 -76.601,-193.975 -41.39,-285.402c25.946,-69.806 105.018,-134.053 179.766,-146.408Zm1403.537,59.922c59.922,-17.915 59.304,-18.533 61.158,39.536l1.853,51.274l38.301,1.853c37.683,1.853 38.301,1.853 42.007,21.621c1.853,11.12 2.471,26.563 1.236,35.212c-2.471,14.208 -4.942,15.444 -44.478,17.297l-41.39,1.853l2.471,92.663c2.471,107.489 4.942,112.431 54.362,109.342l27.799,-1.236l3.707,69.188l-30.888,7.413c-37.683,8.649 -84.015,3.707 -111.196,-12.973c-32.741,-19.768 -37.683,-41.39 -37.683,-159.998l0,-105.018l-61.775,0l0,-74.13l61.775,0l0,-84.632l32.741,-9.266Zm-704.239,87.721c60.54,-12.355 127.875,6.178 166.176,45.714c31.505,32.741 43.861,61.775 46.949,113.049l3.089,45.096l-127.257,0c-69.806,0 -128.493,1.853 -129.728,4.324c-5.56,11.12 9.266,45.096 26.563,59.922c36.447,30.27 103.165,25.328 126.022,-10.502c9.884,-14.208 10.502,-14.826 50.656,-7.413c22.239,4.324 42.007,9.266 43.243,11.12c7.413,6.795 -4.942,29.034 -29.034,52.509c-45.714,46.332 -138.995,63.629 -205.712,38.301c-72.895,-27.799 -111.196,-88.339 -111.196,-176.06c0.618,-90.192 54.98,-158.145 140.23,-176.06Zm75.366,76.601c-40.772,-16.679 -88.339,-3.707 -105.636,29.034c-17.915,35.212 -16.062,36.447 68.571,36.447c65.482,0 77.219,-1.236 77.219,-9.266c0,-19.768 -19.768,-47.567 -40.154,-56.216Zm296.522,-77.219c45.096,-8.031 108.107,-0.618 144.554,17.915c54.362,27.181 58.687,38.301 63.629,174.207c2.471,63.011 6.178,124.786 8.649,137.141l3.707,23.475l-46.949,0c-45.714,0 -47.567,-0.618 -54.362,-17.297c-4.324,-9.266 -8.031,-17.915 -9.266,-19.15c-0.618,-1.236 -11.12,6.178 -22.857,16.679c-14.208,12.355 -33.359,21.004 -56.833,25.946c-105.018,22.239 -179.766,-41.39 -153.203,-130.346c17.915,-59.922 79.69,-85.25 226.716,-92.045c11.12,0 3.707,-38.301 -11.12,-52.509c-28.417,-29.034 -96.987,-16.679 -113.667,20.386c-4.942,9.884 -10.502,13.591 -16.679,11.12c-5.56,-1.853 -25.328,-3.707 -43.861,-3.707l-33.976,0l3.707,-19.768c8.649,-42.625 57.451,-82.779 111.813,-92.045Zm108.107,219.303c0,-23.475 -3.089,-24.092 -64.864,-14.826c-42.625,6.178 -63.011,17.297 -71.042,37.065c-9.266,22.857 1.853,41.39 31.505,50.656c49.42,14.826 104.4,-24.092 104.4,-72.895Zm531.886,-218.685c33.976,-6.795 93.899,-1.853 122.315,9.884c142.701,59.304 145.172,275.518 4.324,336.676c-17.297,7.413 -50.038,14.826 -72.277,16.679c-78.455,5.56 -142.701,-29.034 -175.442,-95.134c-33.359,-67.953 -21.004,-164.323 26.563,-214.361c22.857,-24.71 63.011,-46.949 94.516,-53.745Zm96.37,93.281c-22.239,-20.386 -68.571,-24.092 -94.516,-8.031c-27.181,17.297 -42.007,52.509 -42.007,97.605c0.618,63.629 33.976,103.783 85.868,102.547c35.83,0 56.833,-13.591 71.659,-46.332c22.239,-49.42 12.973,-114.284 -21.004,-145.79Zm-1332.495,-83.397c11.737,-4.942 32.123,-9.266 45.096,-9.884l22.857,0l0,89.574l-33.359,0.618c-26.563,0 -37.683,3.707 -55.598,16.679c-12.355,9.884 -24.092,24.71 -26.563,33.976c-3.089,9.266 -4.942,60.54 -4.942,113.667l0,97.605l-95.752,0l0,-345.942l92.663,0l0,45.714l17.297,-16.679c9.266,-8.649 26.563,-20.386 38.301,-25.328Zm1664.229,1.853c14.208,-6.795 34.594,-11.12 46.332,-10.502l20.386,1.853l0,86.486l-38.301,3.707c-32.123,3.089 -41.39,6.795 -57.451,23.475l-19.768,19.15l-3.707,216.214l-98.223,0l0,-345.942l98.841,0l0,51.274l13.591,-17.297c7.413,-9.266 24.71,-22.239 38.301,-28.417Zm320.786,-158.145c65.482,-14.826 154.438,0.618 202.006,35.212c27.799,20.386 63.629,82.779 53.745,92.663c-3.089,2.471 -26.563,6.795 -51.891,8.649l-46.332,4.324l-12.355,-20.386c-16.062,-26.563 -48.185,-42.007 -85.25,-42.007c-77.837,0 -119.226,59.304 -64.246,92.663c10.502,6.795 40.772,16.679 66.1,21.621c122.315,25.946 171.118,51.274 193.357,100.694c27.181,61.158 6.795,142.701 -45.096,177.913c-72.277,50.038 -208.801,51.891 -289.109,4.942c-40.772,-24.092 -83.397,-100.694 -63.629,-113.667c8.031,-4.324 88.339,-20.386 89.574,-17.297c0,1.236 6.178,12.973 12.973,26.563c37.683,75.984 202.623,67.953 202.623,-9.884c0,-32.741 -21.004,-45.714 -112.431,-70.424c-121.698,-32.123 -163.087,-58.687 -178.531,-114.902c-22.239,-82.779 29.034,-153.203 128.493,-176.678Zm1309.638,498.527l0,-488.026l98.841,0l0,281.078l32.741,-33.976c17.915,-18.533 46.949,-50.038 64.246,-69.806l32.123,-35.83l58.687,1.853l58.069,1.853l-67.335,71.042c-37.065,38.918 -66.1,74.13 -64.864,77.837c1.236,3.707 31.505,45.096 66.717,92.663c35.212,46.949 66.1,89.574 69.188,93.281c3.089,6.178 -8.649,8.031 -53.745,8.031l-57.451,0l-44.478,-64.864c-24.71,-35.212 -46.949,-65.482 -50.038,-67.335c-2.471,-1.853 -14.208,6.178 -25.328,17.915c-19.768,20.386 -20.386,22.239 -19.15,67.953l1.236,46.332l-99.458,0Zm-929.72,-439.223c61.158,-17.915 58.687,-19.15 58.687,40.772l0,52.509l80.926,0l-1.853,35.212l-1.853,35.83l-38.301,1.853l-38.918,1.853l0,92.045c0,107.489 1.853,111.196 50.038,111.196l30.27,0l0,33.359c0,39.536 -1.853,40.772 -66.1,40.772c-54.362,0 -80.926,-10.502 -97.605,-38.918c-11.12,-17.297 -12.355,-33.976 -14.208,-129.728l-2.471,-109.342l-60.54,0l0,-74.13l61.158,0l1.853,-41.39l1.853,-40.772l37.065,-11.12Zm285.402,87.103c63.629,-11.12 144.554,4.942 176.06,35.212c25.328,24.71 30.888,49.42 32.123,155.056c1.236,53.127 3.707,111.813 6.795,129.111l4.942,32.741l-44.478,0c-42.625,0 -44.478,-0.618 -55.598,-18.533c-9.884,-16.679 -12.355,-17.915 -19.15,-9.266c-30.27,36.447 -120.462,49.42 -169.882,24.71c-44.478,-22.239 -66.1,-71.042 -52.509,-120.462c12.355,-46.332 59.922,-76.601 131.582,-84.015c21.004,-1.853 46.949,-4.324 56.833,-5.56c10.502,-0.618 24.71,-1.853 32.741,-2.471c20.386,-1.236 17.915,-27.799 -4.942,-51.274c-17.915,-17.297 -21.621,-18.533 -53.745,-16.062c-29.652,2.471 -37.683,6.178 -52.509,22.857c-16.679,19.15 -19.15,19.768 -59.304,17.915c-40.154,-1.853 -41.39,-2.471 -39.536,-17.297c6.178,-42.625 54.362,-82.779 110.578,-92.663Zm111.196,221.774l3.707,-24.092l-24.092,0.618c-68.571,2.471 -110.578,18.533 -117.373,45.096c-9.266,38.301 38.301,63.011 86.486,44.478c31.505,-11.737 46.949,-32.123 51.274,-66.1Zm276.754,-219.303c53.745,-13.591 124.169,-0.618 165.558,30.888c22.857,17.915 53.127,74.748 43.861,83.397c-3.089,3.089 -24.092,6.795 -46.949,9.266c-36.447,3.707 -41.39,2.471 -44.478,-7.413c-6.795,-21.621 -32.741,-39.536 -60.54,-42.625c-53.745,-5.56 -87.103,35.83 -87.103,106.871c0,27.799 4.324,45.096 14.208,63.011c29.652,53.127 99.458,53.127 128.493,0.618c10.502,-18.533 10.502,-18.533 53.745,-14.208c24.092,1.853 44.478,4.942 45.714,6.178c4.942,4.324 -5.56,31.505 -22.857,58.069c-49.42,78.455 -187.179,90.81 -263.163,24.092c-34.594,-30.888 -53.745,-74.13 -56.216,-131.582c-4.942,-93.899 45.096,-165.558 129.728,-186.562Z" style="fill:#fff;"/><path d="M1206.521,767.583l131.012,72.641c18.795,11.777 32.623,27.743 32.623,44.821c0,17.182 -13.996,33.238 -32.965,45.035l-577.031,319.942c-11.745,5.016 -25.311,8.452 -39.423,8.452c-15.32,0 -29.996,-4.049 -42.398,-9.774l-580.839,-322.053c-16.27,-11.389 -27.761,-26.034 -27.761,-41.602c0,-15.517 11.415,-30.115 27.598,-41.488l132.757,-73.609c1.554,1.278 3.187,2.515 4.889,3.706l449.743,249.365c9.603,4.432 20.967,7.568 32.829,7.568c10.927,0 21.43,-2.66 30.525,-6.544l446.794,-247.73c4.264,-2.652 8.204,-5.582 11.648,-8.73Zm-61.078,-292.875l125.023,69.321c16.931,10.61 29.388,24.992 29.388,40.377c0,15.478 -12.609,29.942 -29.697,40.57l-519.819,288.22c-10.581,4.519 -22.801,7.614 -35.514,7.614c-13.801,0 -27.022,-3.648 -38.194,-8.805l-523.25,-290.122c-14.657,-10.26 -25.009,-23.452 -25.009,-37.477c0,-13.978 10.283,-27.129 24.862,-37.375l135.859,-75.329l399.853,221.703c9.142,4.219 19.959,7.204 31.25,7.204c10.401,0 20.4,-2.533 29.057,-6.23l396.19,-219.672Zm-456.497,111.124l-428.12,-237.376c-11.992,-8.395 -20.462,-19.189 -20.462,-30.664c0,-11.437 8.414,-22.197 20.342,-30.58l431.453,-239.224c8.419,-3.464 18.042,-5.802 28.038,-5.802c9.383,0 18.438,2.061 26.476,5.178l428.147,237.391c13.853,8.681 24.045,20.449 24.045,33.037c0,12.664 -10.316,24.499 -24.298,33.194l-425.313,235.82c-8.657,3.697 -18.656,6.23 -29.057,6.23c-11.292,0 -22.109,-2.985 -31.25,-7.204Z" style="fill:url(#_Linear1);"/></g><defs><linearGradient id="_Linear1" x1="0" y1="0" x2="1" y2="0" gradientUnits="userSpaceOnUse" gradientTransform="matrix(1300.416667,0,0,1154.051803,69.738569,681.448156)"><stop offset="0" style="stop-color:#05b1e7;stop-opacity:1"/><stop offset="1" style="stop-color:#02ebb9;stop-opacity:1"/></linearGradient></defs></svg>